<svg width="24" height="24" viewBox="0 0 24 24" fill="none" xmlns="http://www.w3.org/2000/svg">
<path d="M11.5 22C9.98333 22 8.6875 21.4792 7.6125 20.4375C6.5375 19.3958 6 18.1167 6 16.6V5.85C6 4.78333 6.37917 3.875 7.1375 3.125C7.89583 2.375 8.80833 2 9.875 2C10.9583 2 11.875 2.375 12.625 3.125C13.375 3.875 13.75 4.79167 13.75 5.875V15.725C13.75 16.3583 13.5333 16.8958 13.1 17.3375C12.6667 17.7792 12.1333 18 11.5 18C10.8667 18 10.3333 17.7625 9.9 17.2875C9.46667 16.8125 9.25 16.25 9.25 15.6V5.8H10.25V15.675C10.25 16.0417 10.3708 16.3542 10.6125 16.6125C10.8542 16.8708 11.15 17 11.5 17C11.85 17 12.1458 16.875 12.3875 16.625C12.6292 16.375 12.75 16.075 12.75 15.725V5.85C12.75 5.05 12.4708 4.375 11.9125 3.825C11.3542 3.275 10.675 3 9.875 3C9.075 3 8.39583 3.275 7.8375 3.825C7.27917 4.375 7 5.05 7 5.85V16.65C7 17.8667 7.44167 18.8958 8.325 19.7375C9.20833 20.5792 10.2667 21 11.5 21C12.75 21 13.8125 20.575 14.6875 19.725C15.5625 18.875 16 17.8333 16 16.6V5.8H17V16.575C17 18.0917 16.4625 19.375 15.3875 20.425C14.3125 21.475 13.0167 22 11.5 22Z" fill="#3F4945"/>
</svg>
