<svg width="24" height="24" viewBox="0 0 24 24" fill="none" xmlns="http://www.w3.org/2000/svg">
<path d="M5.33333 20C4.97778 20 4.66667 19.8667 4.4 19.6C4.13333 19.3333 4 19.0222 4 18.6667V5.33333C4 4.97778 4.13333 4.66667 4.4 4.4C4.66667 4.13333 4.97778 4 5.33333 4H18.6667C19.0222 4 19.3333 4.13333 19.6 4.4C19.8667 4.66667 20 4.97778 20 5.33333V18.6667C20 19.0222 19.8667 19.3333 19.6 19.6C19.3333 19.8667 19.0222 20 18.6667 20H5.33333ZM5.33333 18.6667H18.6667V5.33333H5.33333V18.6667Z" fill="#3F4945"/>
</svg>
