<svg width="24" height="24" viewBox="0 0 24 24" fill="none" xmlns="http://www.w3.org/2000/svg">
<path fill-rule="evenodd" clip-rule="evenodd" d="M9.13171 12.7073C8.88293 12.7073 8.67439 12.6232 8.5061 12.4549C8.3378 12.2866 8.25366 12.078 8.25366 11.8293V1.87805C8.25366 1.62927 8.3378 1.42073 8.5061 1.25244C8.67439 1.08415 8.88293 1 9.13171 1H19.0829C19.3317 1 19.5402 1.08415 19.7085 1.25244C19.8768 1.42073 19.961 1.62927 19.961 1.87805V11.8293C19.961 12.078 19.8768 12.2866 19.7085 12.4549C19.5402 12.6232 19.3317 12.7073 19.0829 12.7073H9.13171ZM1.08293 21.0488C1.76585 21.7317 2.59512 22.0732 3.57073 22.0732H19.961C20.9366 22.0732 21.7659 21.7317 22.4488 21.0488C23.1317 20.3659 23.4732 19.5366 23.4732 18.561C23.4732 17.5854 23.1317 16.7561 22.4488 16.0732C21.7659 15.3902 20.9366 15.0488 19.961 15.0488H3.57073C2.59512 15.0488 1.76585 15.3902 1.08293 16.0732C0.4 16.7561 0.0585366 17.5854 0.0585366 18.561C0.0585366 19.5366 0.4 20.3659 1.08293 21.0488ZM19.961 20.3171H3.57073C3.07317 20.3171 2.6561 20.1488 2.31951 19.8122C1.98293 19.4756 1.81463 19.0585 1.81463 18.561C1.81463 18.0634 1.98293 17.6463 2.31951 17.3098C2.6561 16.9732 3.07317 16.8049 3.57073 16.8049H19.961C20.4585 16.8049 20.8756 16.9732 21.2122 17.3098C21.5488 17.6463 21.7171 18.0634 21.7171 18.561C21.7171 19.0585 21.5488 19.4756 21.2122 19.8122C20.8756 20.1488 20.4585 20.3171 19.961 20.3171ZM10.0451 10.9512H10.0098V2.7561H10.0451H18.2049V10.9512H10.0451ZM0 10.0732V8.31707H6.46829V10.0732H0ZM16.478 6.56098H11.7366V4.80488H16.478V6.56098ZM2.4 6.56098H6.70244V4.80488H2.4V6.56098Z" fill="#3F4945"/>
</svg>
