<svg width="24" height="24" viewBox="0 0 24 24" fill="none" xmlns="http://www.w3.org/2000/svg">
<path d="M16.8 14.756C16.8 15.7772 14.6493 16.6061 12.0003 16.6061C9.3721 16.6061 7.23436 15.79 7.2012 14.7798L7.20029 14.303H7.99789V14.7556H7.9994C7.9994 15.3474 9.792 15.8281 12.0003 15.8281C14.2086 15.8281 16.0015 15.3478 16.0015 14.756L16.0012 14.2792H16.8V14.756ZM7.99789 12.5621V13.0385H7.9994C7.9994 13.6303 9.792 14.1113 12.0003 14.1113C14.2086 14.1113 16.0015 13.6306 16.0015 13.0388L16.0024 12.5621H16.8V13.0388C16.8 14.0601 14.6493 14.889 12.0003 14.889C9.3513 14.889 7.20058 14.0601 7.20058 13.0388L7.19999 12.5621H7.99789ZM16.8 10.8453V11.322C16.8 12.3432 14.6493 13.1722 12.0003 13.1722C9.3721 13.1722 7.23436 12.3561 7.2012 11.3458L7.20029 10.8691H7.99789V11.3217L7.9994 11.322C7.9994 11.9138 9.792 12.3942 12.0003 12.3942C14.2086 12.3942 16.0015 11.9138 16.0015 11.322L16.0012 10.8453H16.8ZM16.8 9.12843V9.60516C16.8 10.6264 14.6493 11.4554 12.0003 11.4554C9.3721 11.4554 7.23436 10.6392 7.2012 9.62897L7.20029 9.15223H7.99789V9.60487L7.9994 9.60516C7.9994 10.197 9.792 10.6774 12.0003 10.6774C14.2086 10.6774 16.0015 10.197 16.0015 9.60516L16.0012 9.12843H16.8ZM16.8 7.84988C16.8 8.87112 14.6493 9.70009 12.0003 9.70009C9.3513 9.70009 7.20058 8.87112 7.20058 7.84988C7.20058 6.82864 9.3513 6 12.0003 6C14.1655 6 15.9979 6.55366 16.595 7.31364L15.669 7.42167C15.0517 7.04259 13.6407 6.77739 12.0003 6.77739C9.792 6.77739 7.9994 7.25807 7.9994 7.84988C7.9994 8.44169 9.792 8.9224 12.0003 8.9224C14.2086 8.9224 16.0015 8.44169 16.0015 7.84988H16.8ZM12 24C9.19999 23.3 6.89999 21.675 5.09999 19.125C3.29999 16.575 2.39999 13.78 2.39999 10.74V3.6L12 0L21.6 3.6V10.74C21.6 13.78 20.7 16.575 18.9 19.125C17.1 21.675 14.8 23.3 12 24ZM12 22.14C14.3 21.38 16.175 19.945 17.625 17.835C19.075 15.725 19.8 13.36 19.8 10.74V4.85999L12 1.92001L4.19999 4.85999V10.74C4.19999 13.36 4.92499 15.725 6.37499 17.835C7.82499 19.945 9.69999 21.38 12 22.14Z" fill="#3F4945"/>
</svg>
