<svg width="24" height="24" viewBox="0 0 24 24" fill="none" xmlns="http://www.w3.org/2000/svg">
<path fill-rule="evenodd" clip-rule="evenodd" d="M11.1818 0V6.32727H12.8182V0H11.1818ZM7.39091 8.53636L5.20909 6.35455L6.35455 5.20909L8.53636 7.39091L7.39091 8.53636ZM0 12.8182V11.1818H6.32727V12.8182H0ZM16.6091 8.53636L15.4636 7.39091L17.6455 5.20909L18.7909 6.35455L16.6091 8.53636ZM17.6727 12.8182H24V11.1818H17.6727V12.8182ZM12 14.7818C11.2273 14.7818 10.5705 14.5114 10.0295 13.9705C9.48864 13.4295 9.21818 12.7727 9.21818 12C9.21818 11.2273 9.48864 10.5705 10.0295 10.0295C10.5705 9.48864 11.2273 9.21818 12 9.21818C12.7727 9.21818 13.4295 9.48864 13.9705 10.0295C14.5114 10.5705 14.7818 11.2273 14.7818 12C14.7818 12.7727 14.5114 13.4295 13.9705 13.9705C13.4295 14.5114 12.7727 14.7818 12 14.7818ZM15.4636 16.6091L17.7818 18.9273L18.9273 17.7818L16.6091 15.4636L15.4636 16.6091ZM6.21818 18.9273L5.07273 17.7818L7.39091 15.4636L8.53636 16.6091L6.21818 18.9273ZM11.1818 17.6727V24H12.8182V17.6727H11.1818Z" fill="#3F4945"/>
</svg>
