<svg width="24" height="24" viewBox="0 0 24 24" fill="none" xmlns="http://www.w3.org/2000/svg">
<g clip-path="url(#clip0_3005_12769)">
<path d="M6 20C5.45 20 4.97917 19.8042 4.5875 19.4125C4.19583 19.0208 4 18.55 4 18C4 17.45 4.19583 16.9792 4.5875 16.5875C4.97917 16.1958 5.45 16 6 16C6.55 16 7.02083 16.1958 7.4125 16.5875C7.80417 16.9792 8 17.45 8 18C8 18.55 7.80417 19.0208 7.4125 19.4125C7.02083 19.8042 6.55 20 6 20ZM6 14C5.45 14 4.97917 13.8042 4.5875 13.4125C4.19583 13.0208 4 12.55 4 12C4 11.45 4.19583 10.9792 4.5875 10.5875C4.97917 10.1958 5.45 10 6 10C6.55 10 7.02083 10.1958 7.4125 10.5875C7.80417 10.9792 8 11.45 8 12C8 12.55 7.80417 13.0208 7.4125 13.4125C7.02083 13.8042 6.55 14 6 14ZM6 8C5.45 8 4.97917 7.80417 4.5875 7.4125C4.19583 7.02083 4 6.55 4 6C4 5.45 4.19583 4.97917 4.5875 4.5875C4.97917 4.19583 5.45 4 6 4C6.55 4 7.02083 4.19583 7.4125 4.5875C7.80417 4.97917 8 5.45 8 6C8 6.55 7.80417 7.02083 7.4125 7.4125C7.02083 7.80417 6.55 8 6 8ZM12 20C11.45 20 10.9792 19.8042 10.5875 19.4125C10.1958 19.0208 10 18.55 10 18C10 17.45 10.1958 16.9792 10.5875 16.5875C10.9792 16.1958 11.45 16 12 16C12.55 16 13.0208 16.1958 13.4125 16.5875C13.8042 16.9792 14 17.45 14 18C14 18.55 13.8042 19.0208 13.4125 19.4125C13.0208 19.8042 12.55 20 12 20ZM12 14C11.45 14 10.9792 13.8042 10.5875 13.4125C10.1958 13.0208 10 12.55 10 12C10 11.45 10.1958 10.9792 10.5875 10.5875C10.9792 10.1958 11.45 10 12 10C12.55 10 13.0208 10.1958 13.4125 10.5875C13.8042 10.9792 14 11.45 14 12C14 12.55 13.8042 13.0208 13.4125 13.4125C13.0208 13.8042 12.55 14 12 14ZM12 8C11.45 8 10.9792 7.80417 10.5875 7.4125C10.1958 7.02083 10 6.55 10 6C10 5.41667 10.2042 4.9375 10.6125 4.5625C11.0208 4.1875 11.5083 4 12.075 4C12.0417 4.16667 12.0208 4.32917 12.0125 4.4875C12.0042 4.64583 12 4.81667 12 5C12 5.51667 12.0542 6.02083 12.1625 6.5125C12.2708 7.00417 12.425 7.46667 12.625 7.9C12.525 7.93333 12.425 7.95833 12.325 7.975C12.225 7.99167 12.1167 8 12 8ZM19 10C17.6167 10 16.4375 9.5125 15.4625 8.5375C14.4875 7.5625 14 6.38333 14 5C14 3.61667 14.4875 2.4375 15.4625 1.4625C16.4375 0.4875 17.6167 0 19 0C20.3833 0 21.5625 0.4875 22.5375 1.4625C23.5125 2.4375 24 3.61667 24 5C24 6.38333 23.5125 7.5625 22.5375 8.5375C21.5625 9.5125 20.3833 10 19 10ZM18 20C17.45 20 16.9792 19.8042 16.5875 19.4125C16.1958 19.0208 16 18.55 16 18C16 17.45 16.1958 16.9792 16.5875 16.5875C16.9792 16.1958 17.45 16 18 16C18.55 16 19.0208 16.1958 19.4125 16.5875C19.8042 16.9792 20 17.45 20 18C20 18.55 19.8042 19.0208 19.4125 19.4125C19.0208 19.8042 18.55 20 18 20ZM18 14C17.45 14 16.9792 13.8042 16.5875 13.4125C16.1958 13.0208 16 12.55 16 12C16 11.8833 16.0083 11.775 16.025 11.675C16.0417 11.575 16.0667 11.475 16.1 11.375C16.5333 11.575 16.9958 11.7292 17.4875 11.8375C17.9792 11.9458 18.4833 12 19 12C19.1833 12 19.3542 11.9958 19.5125 11.9875C19.6708 11.9792 19.8333 11.9583 20 11.925C20 12.4917 19.8125 12.9792 19.4375 13.3875C19.0625 13.7958 18.5833 14 18 14ZM19 8C19.1333 8 19.25 7.95 19.35 7.85C19.45 7.75 19.5 7.63333 19.5 7.5C19.5 7.36667 19.45 7.25 19.35 7.15C19.25 7.05 19.1333 7 19 7C18.8667 7 18.75 7.05 18.65 7.15C18.55 7.25 18.5 7.36667 18.5 7.5C18.5 7.63333 18.55 7.75 18.65 7.85C18.75 7.95 18.8667 8 19 8ZM18.5 6H19.5V2H18.5V6Z" fill="#3F4945"/>
</g>
<defs>
<clipPath id="clip0_3005_12769">
<rect width="24" height="24" fill="white"/>
</clipPath>
</defs>
</svg>
