<svg width="24" height="24" viewBox="0 0 24 24" fill="none" xmlns="http://www.w3.org/2000/svg">
<path d="M4 20.0345V2.96552C4 2.43228 4.43228 2 4.96552 2H14.4828L20 7.64865V20.0345C20 20.5677 19.5677 21 19.0345 21H4.96552C4.43228 21 4 20.5677 4 20.0345Z" stroke="#3F4945" stroke-width="1.6"/>
<path d="M11.4621 7L11.4617 8.7648L13.7956 7.78516V8.59408L11.4617 9.56117V10.5212L13.7956 9.54126V10.3502L11.4617 11.3176L11.4621 14.9031C11.8465 14.8634 12.1044 14.8311 12.2359 14.8062C12.7622 14.7068 13.0679 14.4647 13.2841 14.2578C13.5002 14.051 13.8068 13.5756 13.9719 12.8196C13.995 12.714 14.0254 12.4873 14.0633 12.1395H15C14.9031 13.3613 14.5909 14.2502 14.0633 14.8062C13.744 15.1428 13.309 15.4639 12.7408 15.6288C12.4939 15.7005 12.0676 15.7803 11.4621 15.8684H10.4816L10.4808 11.7247L9 12.3386V11.5549L10.4808 10.9325V9.96827L9 10.5825V9.79885L10.4808 9.1761L10.4816 7H11.4621Z" fill="#3F4945"/>
</svg>
