<svg width="24" height="24" viewBox="0 0 24 24" fill="none" xmlns="http://www.w3.org/2000/svg">
<path d="M18.575 16.625L17.45 15.475C17.7833 14.8917 18.0417 14.1458 18.225 13.2375C18.4083 12.3292 18.5 11.55 18.5 10.9V6.00001L12 3.60001L7.3 5.32501L6.15 4.17501L12 1.97501L20 4.95001V10.9C20 11.8907 19.875 12.8718 19.625 13.8431C19.375 14.8144 19.025 15.7417 18.575 16.625ZM20.25 22.575L16.75 19.125C16.0167 19.8583 15.2667 20.4583 14.5 20.925C13.7333 21.3917 12.9 21.7417 12 21.975C9.61667 21.325 7.6875 19.9547 6.2125 17.8642C4.7375 15.7737 4 13.4523 4 10.9V6.32501L1.375 3.70001L2.45 2.62501L21.325 21.5L20.25 22.575ZM12 20.425C12.7012 20.1913 13.3723 19.8621 14.0134 19.4373C14.6545 19.0124 15.2167 18.55 15.7 18.05L5.5 7.82501V10.9C5.5 13.0684 6.10833 15.0397 7.325 16.8138C8.54167 18.5879 10.1 19.7917 12 20.425Z" fill="#3F4945"/>
</svg>
