<svg width="24" height="24" viewBox="0 0 24 24" fill="none" xmlns="http://www.w3.org/2000/svg">
<path d="M17.275 22C15.9678 22 14.8534 21.5393 13.932 20.618C13.0107 19.6966 12.55 18.5823 12.55 17.275C12.55 15.9678 13.0107 14.8534 13.932 13.9321C14.8534 13.0107 15.9678 12.55 17.275 12.55C18.5823 12.55 19.6966 13.0107 20.618 13.9321C21.5393 14.8534 22 15.9678 22 17.275C22 18.5823 21.5393 19.6966 20.618 20.618C19.6966 21.5393 18.5823 22 17.275 22ZM18.7311 19.8L19.425 19.1L17.55 17.225V14.425H16.575V17.575L18.7311 19.8ZM4.5 20.65C4.0875 20.65 3.73438 20.5031 3.44063 20.2094C3.14688 19.9156 3 19.5625 3 19.15V4.60001C3 4.18751 3.12917 3.83438 3.3875 3.54063C3.64583 3.24688 3.86667 3.10001 4.05 3.10001H9.1C9.21667 2.51667 9.50417 2.03751 9.9625 1.66251C10.4208 1.28751 10.95 1.10001 11.55 1.10001C12.15 1.10001 12.6792 1.28751 13.1375 1.66251C13.5958 2.03751 13.8833 2.51667 14 3.10001H19.05C19.4625 3.10001 19.8156 3.24688 20.1094 3.54063C20.4031 3.83438 20.55 4.18751 20.55 4.60001V11.975C20.3 11.825 20.054 11.696 19.8121 11.588C19.5702 11.48 19.3161 11.384 19.05 11.3V4.60001H16.4V7.85001H7.15V4.60001H4.5V19.15H11.325C11.4083 19.4 11.5083 19.6458 11.625 19.8875C11.7417 20.1292 11.8833 20.3833 12.05 20.65H4.5ZM12 4.50001C12.2833 4.50001 12.5208 4.40417 12.7125 4.21251C12.9042 4.02084 13 3.78334 13 3.50001C13 3.21667 12.9042 2.97917 12.7125 2.78751C12.5208 2.59584 12.2833 2.50001 12 2.50001C11.7167 2.50001 11.4792 2.59584 11.2875 2.78751C11.0958 2.97917 11 3.21667 11 3.50001C11 3.78334 11.0958 4.02084 11.2875 4.21251C11.4792 4.40417 11.7167 4.50001 12 4.50001Z" fill="#3F4945"/>
</svg>
