<svg width="24" height="24" viewBox="0 0 24 24" fill="none" xmlns="http://www.w3.org/2000/svg">
<path d="M10.9 15.325L16.6 9.62501L15.55 8.60001L10.975 13.175L8.45 10.65L7.35 11.75L10.9 15.325ZM12 21.975C9.66667 21.3917 7.75 20.0375 6.25 17.9125C4.75 15.7875 4 13.4583 4 10.925V4.97501L12 1.97501L20 4.97501V10.925C20 13.4583 19.25 15.7875 17.75 17.9125C16.25 20.0375 14.3333 21.3917 12 21.975ZM12 20.425C13.9167 19.7917 15.4792 18.5958 16.6875 16.8375C17.8958 15.0792 18.5 13.1083 18.5 10.925V6.02501L12 3.57501L5.5 6.02501V10.925C5.5 13.1083 6.10417 15.0792 7.3125 16.8375C8.52083 18.5958 10.0833 19.7917 12 20.425Z" fill="#3F4945"/>
</svg>
