<svg width="24" height="24" viewBox="0 0 24 24" fill="none" xmlns="http://www.w3.org/2000/svg">
<path d="M6.09167 9.18333V10.9333H4.34167V9.18333H6.09167ZM22.4083 10.9333H20.6583V9.18333H22.4083V10.9333ZM12.5 9.18333H14.25V10.9333H12.5V9.18333ZM1.59167 15.7V13.95H3.34167V15.7H1.59167ZM19.6583 15.7H17.9083V13.95H19.6583V15.7ZM9.75 15.7V13.95H11.5V15.7H9.75ZM3.425 20.4667V18.7167H5.175V20.4667H3.425ZM21.4917 20.4667H19.7417V18.7167H21.4917V20.4667ZM11.5833 18.7167H13.3333V20.4667H11.5833V18.7167ZM20.575 6.16667H18.825V4.41667H20.575V6.16667ZM10.6667 4.41667H12.4167V6.16667H10.6667V4.41667ZM2.50833 4.41667H4.25833V6.16667H2.50833V4.41667Z" stroke="#3F4945"/>
</svg>
