<svg width="24" height="24" viewBox="0 0 24 24" fill="none" xmlns="http://www.w3.org/2000/svg">
<path d="M12 15.875C13.2153 15.875 14.2483 15.4497 15.099 14.599C15.9497 13.7483 16.375 12.7153 16.375 11.5C16.375 10.2986 15.9458 9.27744 15.0875 8.43646C14.2292 7.59549 13.2 7.15834 12 7.12501V8.37501C12.8667 8.39167 13.6042 8.70196 14.2125 9.30588C14.8208 9.90981 15.125 10.6431 15.125 11.5059C15.125 12.3686 14.8212 13.1042 14.2135 13.7125C13.6059 14.3208 12.868 14.625 12 14.625C11.4439 14.625 10.9257 14.4917 10.4454 14.225C9.96514 13.9583 9.58333 13.5833 9.3 13.1L8.225 13.7C8.625 14.3667 9.15672 14.8958 9.82015 15.2875C10.4836 15.6792 11.2102 15.875 12 15.875ZM8.2529 12.225C8.4343 12.225 8.58333 12.1657 8.7 12.0471C8.81667 11.9285 8.875 11.7785 8.875 11.5971C8.875 11.4157 8.8157 11.2667 8.6971 11.15C8.57848 11.0333 8.42848 10.975 8.2471 10.975C8.0657 10.975 7.91667 11.0343 7.8 11.1529C7.68333 11.2715 7.625 11.4215 7.625 11.6029C7.625 11.7843 7.6843 11.9333 7.8029 12.05C7.92152 12.1667 8.07152 12.225 8.2529 12.225ZM8.8029 10.125C8.9843 10.125 9.13333 10.0657 9.25 9.94711C9.36667 9.82849 9.425 9.67849 9.425 9.49711C9.425 9.31571 9.3657 9.16667 9.2471 9.05001C9.12848 8.93334 8.97848 8.87501 8.7971 8.87501C8.6157 8.87501 8.46667 8.93431 8.35 9.05291C8.23333 9.17152 8.175 9.32152 8.175 9.50291C8.175 9.68431 8.2343 9.83334 8.3529 9.95001C8.47152 10.0667 8.62152 10.125 8.8029 10.125ZM10.2529 8.75001C10.4343 8.75001 10.5833 8.69071 10.7 8.57211C10.8167 8.45349 10.875 8.30349 10.875 8.12211C10.875 7.94071 10.8157 7.79167 10.6971 7.67501C10.5785 7.55834 10.4285 7.50001 10.2471 7.50001C10.0657 7.50001 9.91667 7.55931 9.8 7.67791C9.68333 7.79652 9.625 7.94652 9.625 8.12791C9.625 8.30931 9.6843 8.45834 9.8029 8.57501C9.92152 8.69167 10.0715 8.75001 10.2529 8.75001ZM12 21.975C9.66667 21.3917 7.75 20.0375 6.25 17.9125C4.75 15.7875 4 13.4583 4 10.925V4.97501L12 1.97501L20 4.97501V10.925C20 13.4583 19.25 15.7875 17.75 17.9125C16.25 20.0375 14.3333 21.3917 12 21.975ZM12 20.425C13.9167 19.7917 15.4792 18.5958 16.6875 16.8375C17.8958 15.0792 18.5 13.1083 18.5 10.925V6.02501L12 3.57501L5.5 6.02501V10.925C5.5 13.1083 6.10417 15.0792 7.3125 16.8375C8.52083 18.5958 10.0833 19.7917 12 20.425Z" fill="#3F4945"/>
</svg>
