<svg width="24" height="24" viewBox="0 0 24 24" fill="none" xmlns="http://www.w3.org/2000/svg">
<path fill-rule="evenodd" clip-rule="evenodd" d="M12.008 24C10.3533 24 8.7983 23.685 7.34298 23.055C5.88766 22.425 4.615 21.565 3.525 20.475C2.435 19.385 1.575 18.1116 0.945 16.6548C0.315 15.198 0 13.6414 0 11.985C0 10.3286 0.315 8.77203 0.945 7.31523C1.575 5.85841 2.435 4.59 3.525 3.51C4.615 2.43 5.88841 1.575 7.34523 0.945C8.80203 0.315 10.3586 0 12.015 0C13.6714 0 15.228 0.315 16.6848 0.945C18.1416 1.575 19.41 2.43 20.49 3.51C21.57 4.59 22.425 5.86 23.055 7.32C23.685 8.78 24 10.3373 24 11.992C24 13.6467 23.685 15.2017 23.055 16.657C22.425 18.1123 21.57 19.3832 20.49 20.4695C19.41 21.5558 18.14 22.4158 16.68 23.0495C15.22 23.6832 13.6627 24 12.008 24ZM5.58354 13.5C6.00118 13.5 6.355 13.3538 6.645 13.0615C6.935 12.7691 7.08 12.4141 7.08 11.9965C7.08 11.5788 6.93382 11.225 6.64146 10.935C6.34912 10.645 5.99412 10.5 5.57646 10.5C5.15882 10.5 4.805 10.6462 4.515 10.9385C4.225 11.2309 4.08 11.5859 4.08 12.0035C4.08 12.4212 4.22618 12.775 4.51854 13.065C4.81088 13.355 5.16588 13.5 5.58354 13.5ZM12.0035 13.5C12.4212 13.5 12.775 13.3538 13.065 13.0615C13.355 12.7691 13.5 12.4141 13.5 11.9965C13.5 11.5788 13.3538 11.225 13.0615 10.935C12.7691 10.645 12.4141 10.5 11.9965 10.5C11.5788 10.5 11.225 10.6462 10.935 10.9385C10.645 11.2309 10.5 11.5859 10.5 12.0035C10.5 12.4212 10.6462 12.775 10.9385 13.065C11.2309 13.355 11.5859 13.5 12.0035 13.5ZM19.455 13.0615C19.165 13.3538 18.8112 13.5 18.3935 13.5C17.9759 13.5 17.6209 13.355 17.3285 13.065C17.0362 12.775 16.89 12.4212 16.89 12.0035C16.89 11.5859 17.035 11.2309 17.325 10.9385C17.615 10.6462 17.9688 10.5 18.3865 10.5C18.8041 10.5 19.1591 10.645 19.4515 10.935C19.7438 11.225 19.89 11.5788 19.89 11.9965C19.89 12.4141 19.745 12.7691 19.455 13.0615ZM19.23 19.215C17.25 21.205 14.845 22.2 12.015 22.2C9.185 22.2 6.775 21.205 4.785 19.215C2.795 17.225 1.8 14.82 1.8 12C1.8 9.1525 2.795 6.74062 4.785 4.76436C6.775 2.78812 9.18 1.8 12 1.8C14.8475 1.8 17.2594 2.79 19.2356 4.77C21.2119 6.75 22.2 9.155 22.2 11.985C22.2 14.815 21.21 17.225 19.23 19.215Z" fill="#3F4945"/>
</svg>
