<svg width="24" height="24" viewBox="0 0 24 24" fill="none" xmlns="http://www.w3.org/2000/svg">
<path fill-rule="evenodd" clip-rule="evenodd" d="M5.58356 13.5C6.0012 13.5 6.35502 13.3538 6.64502 13.0615C6.93502 12.7691 7.08002 12.4141 7.08002 11.9965C7.08002 11.5788 6.93384 11.225 6.64148 10.935C6.34914 10.645 5.99414 10.5 5.57648 10.5C5.15884 10.5 4.80502 10.6462 4.51502 10.9385C4.22502 11.2309 4.08002 11.5859 4.08002 12.0035C4.08002 12.4212 4.2262 12.775 4.51856 13.065C4.8109 13.355 5.1659 13.5 5.58356 13.5ZM12.0036 13.5C12.4212 13.5 12.775 13.3538 13.065 13.0615C13.355 12.7691 13.5 12.4141 13.5 11.9965C13.5 11.5788 13.3538 11.225 13.0615 10.935C12.7691 10.645 12.4141 10.5 11.9965 10.5C11.5788 10.5 11.225 10.6462 10.935 10.9385C10.645 11.2309 10.5 11.5859 10.5 12.0035C10.5 12.4212 10.6462 12.775 10.9386 13.065C11.2309 13.355 11.5859 13.5 12.0036 13.5ZM19.455 13.0615C19.165 13.3538 18.8112 13.5 18.3936 13.5C17.9759 13.5 17.6209 13.355 17.3286 13.065C17.0362 12.775 16.89 12.4212 16.89 12.0035C16.89 11.5859 17.035 11.2309 17.325 10.9385C17.615 10.6462 17.9688 10.5 18.3865 10.5C18.8041 10.5 19.1591 10.645 19.4515 10.935C19.7438 11.225 19.89 11.5788 19.89 11.9965C19.89 12.4141 19.745 12.7691 19.455 13.0615Z" fill="#3F4945"/>
</svg>
