<svg width="16" height="20" viewBox="0 0 16 20" fill="none" xmlns="http://www.w3.org/2000/svg">
<path d="M3.9 18.5H12.1V15.325C12.1 14.1583 11.7042 13.1542 10.9125 12.3125C10.1208 11.4708 9.15 11.05 8 11.05C6.85 11.05 5.87917 11.4708 5.0875 12.3125C4.29583 13.1542 3.9 14.1583 3.9 15.325V18.5ZM0 20V18.5H2.4V15.325C2.4 14.1583 2.70417 13.0875 3.3125 12.1125C3.92083 11.1375 4.76667 10.4333 5.85 10C4.76667 9.56667 3.92083 8.85833 3.3125 7.875C2.70417 6.89167 2.4 5.81667 2.4 4.65V1.5H0V0H16V1.5H13.6V4.65C13.6 5.81667 13.2958 6.89167 12.6875 7.875C12.0792 8.85833 11.2333 9.56667 10.15 10C11.2333 10.4333 12.0792 11.1375 12.6875 12.1125C13.2958 13.0875 13.6 14.1583 13.6 15.325V18.5H16V20H0Z" fill="#3F4945"/>
</svg>
