<svg width="24" height="24" viewBox="0 0 24 24" fill="none" xmlns="http://www.w3.org/2000/svg">
<path d="M4.5 22C4.1 22 3.75 21.85 3.45 21.55C3.15 21.25 3 20.9 3 20.5V3.5C3 3.1 3.15 2.75 3.45 2.45C3.75 2.15 4.1 2 4.5 2H13L19 8V11.9H17.5V9H12V3.5H4.5V20.5H12V22H4.5ZM17.9 14.925L18.6 15.625L14.5 19.725V21H15.775L19.875 16.9L20.575 17.6L16.175 22H13.5V19.325L17.9 14.925ZM20.575 17.6L17.9 14.925L19.425 13.4C19.575 13.25 19.75 13.175 19.95 13.175C20.15 13.175 20.325 13.25 20.475 13.4L22.1 15.025C22.25 15.175 22.325 15.35 22.325 15.55C22.325 15.75 22.25 15.925 22.1 16.075L20.575 17.6Z" fill="#3F4945"/>
</svg>
