<svg width="24" height="24" viewBox="0 0 24 24" fill="none" xmlns="http://www.w3.org/2000/svg">
<path fill-rule="evenodd" clip-rule="evenodd" d="M2.52632 18.3158V1.89474H0V0H4.42105V16.4211H24V18.3158H2.52632ZM4.39311 24C3.86437 24 3.42105 23.8139 3.06316 23.4418C2.70526 23.0696 2.52632 22.6223 2.52632 22.0997C2.52632 21.5771 2.70526 21.1316 3.06316 20.7632C3.42105 20.3947 3.86437 20.2105 4.39311 20.2105C4.92184 20.2105 5.37447 20.3966 5.751 20.7687C6.12753 21.1409 6.31579 21.5883 6.31579 22.1109C6.31579 22.6334 6.12753 23.0789 5.751 23.4474C5.37447 23.8158 4.92184 24 4.39311 24ZM6.63158 7.26316V14.2105H13.5789V7.26316H6.63158ZM8.52632 12.3158H11.6842V9.1579H8.52632V12.3158ZM15.4737 7.26316V14.2105H22.4211V7.26316H15.4737ZM17.3684 12.3158H20.5263V9.1579H17.3684V12.3158ZM20.7632 23.4418C21.1316 23.8139 21.5771 24 22.0997 24C22.6223 24 23.0696 23.8158 23.4418 23.4474C23.8139 23.0789 24 22.6334 24 22.1109C24 21.5883 23.8158 21.1409 23.4474 20.7687C23.0789 20.3966 22.6334 20.2105 22.1109 20.2105C21.5883 20.2105 21.1409 20.3947 20.7687 20.7632C20.3966 21.1316 20.2105 21.5771 20.2105 22.0997C20.2105 22.6223 20.3947 23.0696 20.7632 23.4418Z" fill="#3F4945"/>
</svg>
