<svg width="212" height="60" viewBox="0 0 212 60" fill="none" xmlns="http://www.w3.org/2000/svg">
<g clip-path="url(#clip0_1240_10091)">
<path d="M9.05242 39.1329C7.02383 39.1329 5.47628 38.5888 4.4141 37.5027V45.2448C4.4141 45.6562 4.34227 45.9326 4.19644 46.0784C4.05061 46.2243 3.73718 46.2961 3.25398 46.2961H1.26022C0.80096 46.2961 0.491884 46.2243 0.335169 46.0784C0.178455 45.9326 0.100098 45.6562 0.100098 45.2448V28.4437C0.100098 25.6903 0.746545 23.5638 2.03944 22.0663C3.33016 20.5688 5.40227 19.82 8.25361 19.82C10.8633 19.82 12.8919 20.4904 14.3415 21.8312C15.7911 23.172 16.5159 25.0613 16.5159 27.5012V30.9076C16.5159 33.5413 15.876 35.5698 14.5962 36.9955C13.3164 38.419 11.4684 39.1329 9.05242 39.1329ZM12.2041 30.5071V28.2238C12.2041 26.5805 11.8842 25.3725 11.2442 24.5998C10.6043 23.8271 9.60745 23.4397 8.25361 23.4397C6.92589 23.4397 5.93989 23.8271 5.29997 24.5998C4.66006 25.3725 4.3401 26.5805 4.3401 28.2238V30.4723C4.3401 33.8068 5.64388 35.4741 8.25361 35.4741C10.8873 35.4719 12.2041 33.8177 12.2041 30.5071Z" fill="white"/>
<path d="M25.8361 27.4272C26.3911 27.4272 27.0267 27.4446 27.7384 27.4816C28.4501 27.5165 29.1205 27.5709 29.7496 27.6449V26.7024C29.7496 25.3508 29.4906 24.4148 28.9704 23.8946C28.4501 23.3766 27.647 23.1154 26.5609 23.1154C25.8121 23.1154 25.1961 23.2308 24.7129 23.4593C24.2297 23.6878 23.8924 24.0818 23.6986 24.6368C23.6029 24.9263 23.481 25.1135 23.3373 25.1984C23.1915 25.2833 22.926 25.3246 22.5407 25.3246H20.1856C19.7982 25.3246 19.5327 25.2593 19.389 25.1244C19.2432 24.9916 19.1713 24.7935 19.1713 24.5258C19.1713 23.5834 19.5457 22.7018 20.2945 21.8813C20.8974 21.2283 21.6962 20.7211 22.6865 20.3598C23.6769 19.9963 24.9698 19.8157 26.563 19.8157C28.4719 19.8157 29.9563 20.0682 31.0207 20.5753C32.0829 21.0825 32.8316 21.8269 33.2669 22.8041C33.7023 23.7814 33.9199 24.9851 33.9199 26.4086V33.476C33.9199 34.5381 33.7153 35.5481 33.3039 36.5014C32.8926 37.457 32.1852 38.2231 31.1839 38.8021C30.1805 39.3811 28.7745 39.6727 26.9614 39.6727H25.9471C23.3852 39.6727 21.4959 39.1961 20.277 38.2405C19.056 37.2872 18.4465 35.7462 18.4465 33.6196C18.4465 32.0242 18.7774 30.7813 19.4434 29.8868C20.1073 28.9922 21.0019 28.3588 22.125 27.9844C23.2437 27.6144 24.4822 27.4272 25.8361 27.4272ZM26.0537 30.7248C24.9175 30.7248 24.0665 30.9424 23.4984 31.3777C22.9303 31.8131 22.6474 32.5487 22.6474 33.587C22.6474 34.6252 22.9238 35.35 23.481 35.7614C24.036 36.1728 24.8218 36.3774 25.8361 36.3774H26.452C27.6361 36.3774 28.4806 36.0879 28.9878 35.5067C29.4949 34.9278 29.7496 33.9483 29.7496 32.5727V30.9424C28.9529 30.8466 28.2521 30.7857 27.647 30.7618C27.0441 30.7378 26.5108 30.7248 26.0537 30.7248Z" fill="white"/>
<path d="M41.1593 16.048V38.2623C41.1593 38.6976 41.081 38.9806 40.9243 39.1133C40.7654 39.2461 40.4585 39.3136 39.9992 39.3136H38.0055C37.5462 39.3136 37.2371 39.2483 37.0804 39.1133C36.9215 38.9806 36.8453 38.6976 36.8453 38.2623V16.048C36.8453 15.6127 36.9237 15.3297 37.0804 15.197C37.2371 15.0642 37.5462 14.9989 38.0055 14.9989H39.9992C40.4585 14.9989 40.7654 15.0642 40.9243 15.197C41.0788 15.3297 41.1593 15.6149 41.1593 16.048Z" fill="white"/>
<path d="M58.5808 30.9794H48.0722V31.1601C48.0722 32.9732 48.3682 34.2595 48.9603 35.0192C49.5523 35.781 50.5361 36.1619 51.9139 36.1619C53.6769 36.1619 54.7522 35.5328 55.1396 34.277C55.2854 33.8656 55.6119 33.661 56.1169 33.661H58.3631C58.7745 33.661 59.064 33.7219 59.2338 33.8416C59.4035 33.9635 59.4862 34.179 59.4862 34.4946C59.4862 34.9539 59.3361 35.4915 59.0335 36.1075C58.731 36.7234 58.374 37.2371 57.9648 37.6485C57.2879 38.3494 56.4129 38.887 55.3377 39.2613C54.2624 39.6357 53.0849 39.8229 51.8051 39.8229C49.2432 39.8229 47.2625 39.0981 45.863 37.6485C44.4612 36.1989 43.7604 34.1333 43.7604 31.4517V28.6243C43.7604 25.8231 44.4612 23.6552 45.863 22.1207C47.2647 20.5862 49.2563 19.82 51.8421 19.82C54.4278 19.82 56.389 20.5318 57.7297 21.9574C59.0705 23.3831 59.7409 25.4726 59.7409 28.226V29.9281C59.7409 30.3395 59.6691 30.6159 59.5233 30.7618C59.3774 30.9054 59.0618 30.9794 58.5808 30.9794ZM51.8769 23.296C50.5731 23.296 49.6241 23.6399 49.0321 24.3299C48.44 25.0177 48.1201 26.1474 48.0722 27.7189H55.3551C55.3551 26.1974 55.0765 25.0787 54.5214 24.3669C53.9642 23.653 53.0827 23.296 51.8769 23.296Z" fill="white"/>
<path d="M71.3378 39.3136H69.3092C67.1827 39.3136 65.7222 38.7999 64.9256 37.7747C64.1289 36.7474 63.7306 35.3653 63.7306 33.6262V23.8772H61.8109C61.4495 23.8772 61.2058 23.8119 61.086 23.6791C60.9642 23.5464 60.9054 23.2743 60.9054 22.8629V21.3415C60.9054 20.9301 60.9663 20.6602 61.086 20.5253C61.2058 20.3925 61.4495 20.3272 61.8109 20.3272H63.7306V16.0502C63.7306 15.6149 63.809 15.3319 63.9657 15.1991C64.1224 15.0664 64.4315 14.9989 64.8907 14.9989H66.8845C67.3438 14.9989 67.6507 15.0664 67.8095 15.1991C67.9663 15.3319 68.0446 15.6149 68.0446 16.0502V20.3272H71.3421C71.7056 20.3272 71.9451 20.3925 72.067 20.5253C72.1867 20.658 72.2476 20.9301 72.2476 21.3415V22.8629C72.2476 23.2743 72.1867 23.5464 72.067 23.6791C71.9451 23.8119 71.7056 23.8772 71.3421 23.8772H68.0446V32.9732C68.0446 33.8678 68.1948 34.5251 68.4973 34.9473C68.7977 35.3696 69.3114 35.5807 70.0362 35.5807H71.34C71.7035 35.5807 71.9429 35.6482 72.0648 35.781C72.1845 35.9138 72.2454 36.1858 72.2454 36.5972V38.2993C72.2454 38.7107 72.191 38.9827 72.0822 39.1155C71.9712 39.2461 71.7231 39.3136 71.3378 39.3136Z" fill="white"/>
<path d="M147.42 39.1329C145.392 39.1329 143.844 38.5888 142.782 37.5027V45.2448C142.782 45.6562 142.71 45.9326 142.564 46.0784C142.419 46.2243 142.105 46.2961 141.622 46.2961H139.628C139.169 46.2961 138.862 46.2243 138.703 46.0784C138.547 45.9326 138.468 45.6562 138.468 45.2448V28.4437C138.468 25.6903 139.115 23.5638 140.407 22.0663C141.7 20.5688 143.77 19.82 146.622 19.82C149.231 19.82 151.26 20.4904 152.71 21.8312C154.159 23.172 154.884 25.0613 154.884 27.5012V30.9076C154.884 33.5413 154.244 35.5698 152.964 36.9955C151.684 38.419 149.836 39.1329 147.42 39.1329ZM150.574 30.5071V28.2238C150.574 26.5805 150.254 25.3725 149.614 24.5998C148.975 23.8271 147.978 23.4397 146.626 23.4397C145.296 23.4397 144.312 23.8271 143.672 24.5998C143.032 25.3725 142.712 26.5805 142.712 28.2238V30.4723C142.712 33.8068 144.016 35.4741 146.626 35.4741C149.258 35.4719 150.574 33.8177 150.574 30.5071Z" fill="white"/>
<path d="M165.16 39.8207C162.574 39.8207 160.558 39.1133 159.109 37.7007C157.659 36.2881 156.934 34.3118 156.934 31.776V28.2239C156.934 25.5662 157.659 23.5006 159.109 22.0271C160.558 20.5535 162.574 19.8179 165.16 19.8179C167.745 19.8179 169.761 20.5252 171.211 21.9379C172.66 23.3505 173.385 25.3246 173.385 27.8625V31.4147C173.385 34.0484 172.66 36.1075 171.211 37.5941C169.763 39.0785 167.745 39.8207 165.16 39.8207ZM165.16 36.1597C167.769 36.1597 169.073 34.5164 169.073 31.2319V28.4045C169.073 25.12 167.769 23.4767 165.16 23.4767C162.55 23.4767 161.246 25.12 161.246 28.4045V31.2319C161.246 34.5186 162.552 36.1597 165.16 36.1597Z" fill="white"/>
<path d="M178.076 18.1506C177.403 18.1506 176.868 17.9786 176.467 17.6304C176.067 17.2843 175.866 16.8076 175.866 16.2004V15.5169C175.866 14.8879 176.067 14.4069 176.467 14.0717C176.868 13.7365 177.403 13.5689 178.076 13.5689C178.768 13.5689 179.316 13.7365 179.717 14.0717C180.117 14.4069 180.317 14.8901 180.317 15.5169V16.2004C180.317 16.8076 180.117 17.2843 179.717 17.6304C179.316 17.9786 178.768 18.1506 178.076 18.1506ZM180.213 21.3763V38.2623C180.213 38.6976 180.135 38.9806 179.978 39.1133C179.821 39.2461 179.512 39.3136 179.053 39.3136H177.059C176.6 39.3136 176.293 39.2483 176.134 39.1133C175.977 38.9806 175.899 38.6976 175.899 38.2623V21.3763C175.899 20.941 175.977 20.658 176.134 20.5252C176.291 20.3925 176.6 20.3272 177.059 20.3272H179.053C179.512 20.3272 179.819 20.3925 179.978 20.5252C180.132 20.658 180.213 20.941 180.213 21.3763Z" fill="white"/>
<path d="M192.861 19.8179C194.89 19.8179 196.4 20.4034 197.391 21.5744C198.381 22.7454 198.875 24.3473 198.875 26.3759V38.2623C198.875 38.6976 198.797 38.9806 198.64 39.1133C198.483 39.2461 198.174 39.3136 197.715 39.3136H195.721C195.262 39.3136 194.953 39.2483 194.796 39.1133C194.639 38.9806 194.561 38.6976 194.561 38.2623V27.0289C194.561 25.9188 194.337 25.0656 193.891 24.4736C193.444 23.8816 192.628 23.5855 191.444 23.5855C190.284 23.5855 189.372 23.9425 188.708 24.6542C188.044 25.366 187.711 26.3629 187.711 27.6427V38.2601C187.711 38.6954 187.633 38.9784 187.476 39.1112C187.32 39.2439 187.01 39.3114 186.551 39.3114H184.557C184.098 39.3114 183.791 39.2461 183.632 39.1112C183.476 38.9784 183.397 38.6954 183.397 38.2601V21.3741C183.397 20.9388 183.476 20.6558 183.632 20.5231C183.789 20.3903 184.098 20.325 184.557 20.325H186.477C186.936 20.325 187.243 20.3903 187.402 20.5231C187.559 20.6558 187.637 20.941 187.637 21.3741V22.1337C188.192 21.4089 188.924 20.843 189.829 20.4317C190.741 20.0225 191.749 19.8179 192.861 19.8179Z" fill="white"/>
<path d="M210.992 39.3136H208.964C206.837 39.3136 205.377 38.7999 204.58 37.7747C203.783 36.7474 203.385 35.3653 203.385 33.6262V23.8772H201.465C201.104 23.8772 200.86 23.8119 200.74 23.6791C200.619 23.5464 200.56 23.2743 200.56 22.8629V21.3415C200.56 20.9301 200.621 20.6602 200.74 20.5253C200.86 20.3925 201.104 20.3272 201.465 20.3272H203.385V16.0502C203.385 15.6149 203.463 15.3319 203.62 15.1991C203.777 15.0664 204.086 14.9989 204.545 14.9989H206.539C206.998 14.9989 207.305 15.0664 207.464 15.1991C207.621 15.3319 207.699 15.6149 207.699 16.0502V20.3272H210.997C211.36 20.3272 211.599 20.3925 211.721 20.5253C211.841 20.658 211.902 20.9301 211.902 21.3415V22.8629C211.902 23.2743 211.841 23.5464 211.721 23.6791C211.599 23.8119 211.36 23.8772 210.997 23.8772H207.699V32.9732C207.699 33.8678 207.849 34.5251 208.152 34.9473C208.452 35.3696 208.966 35.5807 209.691 35.5807H210.994C211.358 35.5807 211.597 35.6482 211.719 35.781C211.839 35.9138 211.9 36.1858 211.9 36.5972V38.2993C211.9 38.7107 211.845 38.9827 211.737 39.1155C211.626 39.2461 211.377 39.3136 210.992 39.3136Z" fill="white"/>
<path d="M104.994 59.4296C121.348 59.4296 134.605 46.1726 134.605 29.8193C134.605 13.4659 121.348 0.208946 104.994 0.208946C88.641 0.208946 75.384 13.4659 75.384 29.8193C75.384 46.1726 88.641 59.4296 104.994 59.4296Z" fill="#FF5E00"/>
<path d="M104.994 13.3708L79.9854 29.8193L83.3808 32.0525L95.8854 23.8271L108.388 15.6018L104.994 13.3708Z" fill="white"/>
<path d="M119.184 22.704L115.812 20.4861L103.307 28.7114L90.803 36.9346L94.1767 39.1525L119.184 22.704Z" fill="white"/>
<path d="M101.294 27.3859L113.797 19.1605L110.403 16.9273L97.8987 25.1527L85.3942 33.378L88.7896 35.609L101.294 27.3859Z" fill="white"/>
<path d="M112.088 34.4859L124.592 26.2606L121.221 24.0426L96.214 40.4933L99.5855 42.7112L112.088 34.4859Z" fill="white"/>
<path d="M130.001 29.8193L126.608 27.5861L114.103 35.8115L101.599 44.0368L104.994 46.2678L130.001 29.8193Z" fill="white"/>
</g>
<defs>
<clipPath id="clip0_1240_10091">
<rect width="212" height="59.6386" fill="white"/>
</clipPath>
</defs>
</svg>
